<?xml version="1.0" encoding="UTF-8"?>
<!DOCTYPE svg PUBLIC "-//W3C//DTD SVG 1.1//EN" "http://www.w3.org/Graphics/SVG/1.1/DTD/svg11.dtd">
<!-- Creator: CorelDRAW -->
<svg fill="#fff" xmlns="http://www.w3.org/2000/svg" xml:space="preserve" width="0.19685in" height="0.19685in" style="shape-rendering:geometricPrecision; text-rendering:geometricPrecision; image-rendering:optimizeQuality; fill-rule:evenodd; clip-rule:evenodd"
viewBox="0 0 0.19685 0.19685"
 xmlns:xlink="http://www.w3.org/1999/xlink">
 <defs>
  
 </defs>
 <g id="Layer_x0020_1">
  <metadata id="CorelCorpID_0Corel-Layer"/>
  <path fill="#fff" class="fil0" d="M0.0984291 0.196067c0.0538386,0 0.0976535,-0.0437953 0.0976339,-0.0976457 0,-0.0538386 -0.0437953,-0.0976535 -0.0976339,-0.0976339 -0.0538504,0 -0.0976339,0.0437953 -0.0976457,0.0976339 0,0.0538504 0.0437953,0.0976457 0.0976457,0.0976457zm-3.93701e-006 -0.0780079c0.0204764,0 0.037189,-0.0167402 0.037189,-0.0373504 0,-0.020622 -0.0167126,-0.0373819 -0.037189,-0.0373819 -0.0204764,0 -0.037189,0.0167598 -0.037189,0.0373819 0,0.0206102 0.0167126,0.0373504 0.037189,0.0373504zm0.0239094 0.00375197c-0.00198031,-0.000787402 -0.00414173,-0.000244094 -0.00572047,0.00142126l-0.018189 0.00924409 -0.018189 -0.00924803c-0.00157874,-0.00166142 -0.00374016,-0.00220472 -0.00572047,-0.00141732 -0.00752362,0.00299213 -0.0294409,0.0177047 -0.0339921,0.0393228 -0.0168937,-0.0156142 -0.0274921,-0.0379528 -0.0274921,-0.0627126 0,-0.0470827 0.0383031,-0.0853937 0.0853976,-0.0853937 0.0470827,7.87402e-006 0.0853858,0.038311 0.0853858,0.0853937 0,0.0247598 -0.0105984,0.0470945 -0.0274882,0.0627087 -0.00455118,-0.0216142 -0.0264685,-0.0363268 -0.0339921,-0.0393189z"/>
 </g>
</svg>
